<svg width="175" height="77" viewBox="0 0 175 77" fill="none" xmlns="http://www.w3.org/2000/svg">
<path d="M2.06258 40.0089C1.63434 40.0089 1.28396 39.8755 1.01144 39.6088C0.738917 39.3421 0.602658 39.0182 0.602658 38.6372V1.42889C0.602658 1.00975 0.738917 0.666816 1.01144 0.400091C1.28396 0.133364 1.63434 0 2.06258 0H6.67595C7.22099 0 7.62977 0.152415 7.90229 0.457246C8.17481 0.72397 8.35 0.93354 8.42786 1.08596L19.6985 21.662L31.0859 1.08596C31.1638 0.93354 31.339 0.72397 31.6115 0.457246C31.884 0.152415 32.2928 0 32.8378 0H37.3928C37.821 0 38.1714 0.133364 38.4439 0.400091C38.7165 0.666816 38.8527 1.00975 38.8527 1.42889V38.6372C38.8527 39.0182 38.7165 39.3421 38.4439 39.6088C38.1714 39.8755 37.821 40.0089 37.3928 40.0089H32.4874C32.0592 40.0089 31.7088 39.8755 31.4363 39.6088C31.2027 39.3421 31.0859 39.0182 31.0859 38.6372V13.8888L22.9103 29.1493C22.7157 29.4923 22.4626 29.7971 22.1512 30.0638C21.8397 30.2925 21.4309 30.4068 20.9248 30.4068H18.5306C17.9855 30.4068 17.5573 30.2925 17.2458 30.0638C16.9733 29.7971 16.7397 29.4923 16.5451 29.1493L8.36947 13.8888V38.6372C8.36947 39.0182 8.23321 39.3421 7.96069 39.6088C7.68817 39.8755 7.35725 40.0089 6.96794 40.0089H2.06258Z" fill="#5969B4"/>
<path d="M61.0171 40.0089C60.6278 40.0089 60.2969 39.8755 60.0244 39.6088C59.7519 39.3421 59.6156 39.0182 59.6156 38.6372V1.37173C59.6156 0.990696 59.7519 0.666816 60.0244 0.400091C60.2969 0.133364 60.6278 0 61.0171 0H66.5065C66.9347 0 67.2656 0.133364 67.4992 0.400091C67.7717 0.666816 67.908 0.990696 67.908 1.37173V38.6372C67.908 39.0182 67.7717 39.3421 67.4992 39.6088C67.2656 39.8755 66.9347 40.0089 66.5065 40.0089H61.0171Z" fill="#5969B4"/>
<path d="M90.1472 40.0089C89.7579 40.0089 89.427 39.8755 89.1545 39.6088C88.882 39.3421 88.7457 39.0182 88.7457 38.6372V1.42889C88.7457 1.00975 88.882 0.666816 89.1545 0.400091C89.427 0.133364 89.7579 0 90.1472 0H94.6438C95.1889 0 95.5782 0.133364 95.8118 0.400091C96.0843 0.628712 96.2595 0.800179 96.3373 0.914491L113.156 26.5202V1.42889C113.156 1.00975 113.272 0.666816 113.506 0.400091C113.779 0.133364 114.129 0 114.557 0H119.463C119.891 0 120.241 0.133364 120.514 0.400091C120.786 0.666816 120.922 1.00975 120.922 1.42889V38.58C120.922 38.9992 120.786 39.3421 120.514 39.6088C120.241 39.8755 119.91 40.0089 119.521 40.0089H114.966C114.421 40.0089 114.032 39.8755 113.798 39.6088C113.564 39.3421 113.389 39.1706 113.272 39.0944L96.5125 14.0603V38.6372C96.5125 39.0182 96.3763 39.3421 96.1037 39.6088C95.8312 39.8755 95.4808 40.0089 95.0526 40.0089H90.1472Z" fill="#5969B4"/>
<path d="M143.115 40.0089C142.726 40.0089 142.395 39.8755 142.122 39.6088C141.85 39.3421 141.714 39.0182 141.714 38.6372V1.42889C141.714 1.00975 141.85 0.666816 142.122 0.400091C142.395 0.133364 142.726 0 143.115 0H157.364C161.296 0 164.527 0.590608 167.058 1.77182C169.627 2.95304 171.555 4.70581 172.839 7.03014C174.163 9.35446 174.844 12.1932 174.883 15.5463C174.961 17.2229 175 18.7089 175 20.0045C175 21.3 174.961 22.767 174.883 24.4054C174.805 27.9491 174.144 30.8831 172.898 33.2074C171.652 35.4936 169.764 37.2083 167.233 38.3514C164.742 39.4564 161.549 40.0089 157.656 40.0089H143.115ZM149.831 33.436H157.364C159.544 33.436 161.316 33.1312 162.678 32.5215C164.041 31.9119 165.034 30.9402 165.656 29.6066C166.318 28.2349 166.669 26.444 166.708 24.234C166.747 23.0909 166.766 22.1002 166.766 21.2619C166.805 20.3855 166.805 19.5282 166.766 18.6899C166.766 17.8135 166.747 16.8228 166.708 15.7178C166.63 12.5933 165.832 10.288 164.313 8.80196C162.795 7.31592 160.381 6.57289 157.072 6.57289H149.831V33.436Z" fill="#5969B4"/>
<path d="M0.967055 76.5885C0.68675 76.5885 0.448489 76.5062 0.252275 76.3416C0.0840917 76.177 0 75.9575 0 75.6831V48.7286C0 48.4268 0.0840917 48.1936 0.252275 48.029C0.448489 47.8644 0.68675 47.7821 0.967055 47.7821H2.0182C2.29851 47.7821 2.50874 47.8507 2.64889 47.9878C2.78904 48.125 2.87313 48.2347 2.90117 48.317L12.4456 66.5062L22.032 48.317C22.0881 48.2347 22.1722 48.125 22.2843 47.9878C22.4245 47.8507 22.6347 47.7821 22.915 47.7821H23.9241C24.2324 47.7821 24.4707 47.8644 24.6389 48.029C24.8071 48.1936 24.8912 48.4268 24.8912 48.7286V75.6831C24.8912 75.9575 24.8071 76.177 24.6389 76.3416C24.4707 76.5062 24.2324 76.5885 23.9241 76.5885H23.1673C22.887 76.5885 22.6627 76.5062 22.4945 76.3416C22.3264 76.177 22.2423 75.9575 22.2423 75.6831V53.3787L14.2115 68.8519C14.0994 69.1262 13.9312 69.332 13.707 69.4692C13.5107 69.6064 13.2445 69.6749 12.9081 69.6749H11.9831C11.6467 69.6749 11.3804 69.6064 11.1842 69.4692C10.988 69.332 10.8198 69.1262 10.6797 68.8519L2.64889 53.3787V75.6831C2.64889 75.9575 2.5648 76.177 2.39662 76.3416C2.22843 76.5062 2.00419 76.5885 1.72388 76.5885H0.967055Z" fill="#322E5C"/>
<path d="M30.705 76.5885C30.4807 76.5885 30.2845 76.5062 30.1163 76.3416C29.9482 76.177 29.8641 75.9849 29.8641 75.7654C29.8641 75.6283 29.8921 75.4774 29.9482 75.3128L40.5858 48.6051C40.6979 48.3308 40.838 48.125 41.0062 47.9878C41.2024 47.8507 41.4687 47.7821 41.8051 47.7821H43.2347C43.571 47.7821 43.8233 47.8507 43.9915 47.9878C44.1877 48.125 44.3419 48.3308 44.454 48.6051L55.0916 75.3128C55.1477 75.4774 55.1757 75.6283 55.1757 75.7654C55.1757 75.9849 55.0916 76.177 54.9234 76.3416C54.7552 76.5062 54.559 76.5885 54.3348 76.5885H53.4939C53.2136 76.5885 53.0033 76.5199 52.8632 76.3827C52.723 76.2181 52.6249 76.0809 52.5688 75.9712L49.962 69.3869H35.0778L32.4709 75.9712C32.4429 76.0809 32.3448 76.2181 32.1766 76.3827C32.0364 76.5199 31.8262 76.5885 31.5459 76.5885H30.705ZM36.0869 66.9178H48.9529L42.5199 50.7039L36.0869 66.9178Z" fill="#322E5C"/>
<path d="M64.3499 76.5885C64.0696 76.5885 63.8454 76.5062 63.6772 76.3416C63.509 76.177 63.4249 75.9575 63.4249 75.6831V50.2512H55.0998C54.8195 50.2512 54.5953 50.1689 54.4271 50.0043C54.2589 49.8397 54.1748 49.6202 54.1748 49.3458V48.7286C54.1748 48.4268 54.2589 48.1936 54.4271 48.029C54.5953 47.8644 54.8195 47.7821 55.0998 47.7821H74.3568C74.6652 47.7821 74.9034 47.8644 75.0716 48.029C75.2398 48.1936 75.3239 48.4268 75.3239 48.7286V49.3458C75.3239 49.6202 75.2398 49.8397 75.0716 50.0043C74.9034 50.1689 74.6652 50.2512 74.3568 50.2512H66.0738V75.6831C66.0738 75.9575 65.9897 76.177 65.8215 76.3416C65.6533 76.5062 65.4151 76.5885 65.1067 76.5885H64.3499Z" fill="#322E5C"/>
<path d="M87.7544 76.5885C87.474 76.5885 87.2498 76.5062 87.0816 76.3416C86.9134 76.177 86.8293 75.9575 86.8293 75.6831V50.2512H78.5043C78.2239 50.2512 77.9997 50.1689 77.8315 50.0043C77.6633 49.8397 77.5792 49.6202 77.5792 49.3458V48.7286C77.5792 48.4268 77.6633 48.1936 77.8315 48.029C77.9997 47.8644 78.2239 47.7821 78.5043 47.7821H97.7613C98.0696 47.7821 98.3079 47.8644 98.4761 48.029C98.6442 48.1936 98.7283 48.4268 98.7283 48.7286V49.3458C98.7283 49.6202 98.6442 49.8397 98.4761 50.0043C98.3079 50.1689 98.0696 50.2512 97.7613 50.2512H89.4782V75.6831C89.4782 75.9575 89.3941 76.177 89.226 76.3416C89.0578 76.5062 88.8195 76.5885 88.5112 76.5885H87.7544Z" fill="#322E5C"/>
<path d="M104.726 76.5885C104.445 76.5885 104.221 76.5062 104.053 76.3416C103.885 76.177 103.801 75.9575 103.801 75.6831V48.7286C103.801 48.4268 103.885 48.1936 104.053 48.029C104.221 47.8644 104.445 47.7821 104.726 47.7821H121.124C121.432 47.7821 121.67 47.8644 121.838 48.029C122.007 48.1936 122.091 48.4268 122.091 48.7286V49.3458C122.091 49.6202 122.007 49.8397 121.838 50.0043C121.67 50.1689 121.432 50.2512 121.124 50.2512H106.45V60.745H120.199C120.507 60.745 120.745 60.8273 120.913 60.9919C121.082 61.1565 121.166 61.3897 121.166 61.6914V62.3087C121.166 62.5831 121.082 62.8026 120.913 62.9672C120.745 63.1318 120.507 63.2141 120.199 63.2141H106.45V74.1194H121.46C121.768 74.1194 122.007 74.2017 122.175 74.3663C122.343 74.5309 122.427 74.7641 122.427 75.0659V75.6831C122.427 75.9575 122.343 76.177 122.175 76.3416C122.007 76.5062 121.768 76.5885 121.46 76.5885H104.726Z" fill="#322E5C"/>
<path d="M129.608 76.5885C129.328 76.5885 129.104 76.5062 128.936 76.3416C128.767 76.177 128.683 75.9575 128.683 75.6831V48.7286C128.683 48.4268 128.767 48.1936 128.936 48.029C129.104 47.8644 129.328 47.7821 129.608 47.7821H139.405C142.348 47.7821 144.689 48.4679 146.427 49.8397C148.193 51.2114 149.076 53.2964 149.076 56.0948C149.076 58.2895 148.515 60.0454 147.394 61.3622C146.273 62.6791 144.717 63.5707 142.727 64.0371L149.496 75.3128C149.58 75.4774 149.622 75.6283 149.622 75.7654C149.622 75.9849 149.538 76.177 149.37 76.3416C149.202 76.5062 149.006 76.5885 148.781 76.5885H148.277C147.828 76.5885 147.492 76.4787 147.268 76.2593C147.043 76.0124 146.847 75.7517 146.679 75.4774L139.994 64.4075H131.332V75.6831C131.332 75.9575 131.248 76.177 131.08 76.3416C130.912 76.5062 130.674 76.5885 130.365 76.5885H129.608ZM131.332 61.9384H139.195C141.634 61.9384 143.441 61.4583 144.619 60.498C145.824 59.5104 146.427 58.0426 146.427 56.0948C146.427 54.1469 145.824 52.6929 144.619 51.7327C143.441 50.745 141.634 50.2512 139.195 50.2512H131.332V61.9384Z" fill="#322E5C"/>
<path d="M164.408 77C162.137 77 160.203 76.6433 158.605 75.93C157.036 75.2167 155.83 74.2977 154.989 73.1729C154.148 72.048 153.7 70.8546 153.644 69.5926C153.644 69.3732 153.728 69.1811 153.896 69.0165C154.064 68.8519 154.275 68.7696 154.527 68.7696H155.368C155.648 68.7696 155.858 68.8519 155.998 69.0165C156.167 69.1811 156.265 69.3732 156.293 69.5926C156.405 70.3608 156.755 71.129 157.344 71.8972C157.933 72.6379 158.801 73.2689 159.951 73.7901C161.1 74.284 162.586 74.5309 164.408 74.5309C167.155 74.5309 169.159 74.0508 170.42 73.0906C171.682 72.1029 172.312 70.786 172.312 69.14C172.312 68.0426 171.976 67.1647 171.303 66.5062C170.658 65.8204 169.663 65.2168 168.318 64.6955C166.972 64.1469 165.249 63.5433 163.146 62.8849C161.156 62.2539 159.516 61.6091 158.227 60.9507C156.937 60.2648 155.984 59.4418 155.368 58.4816C154.779 57.5214 154.485 56.2868 154.485 54.7779C154.485 53.3787 154.863 52.1305 155.62 51.0331C156.377 49.9083 157.47 49.0166 158.9 48.3582C160.357 47.6998 162.123 47.3705 164.197 47.3705C165.851 47.3705 167.295 47.59 168.528 48.029C169.761 48.4679 170.785 49.0578 171.597 49.7985C172.41 50.5118 173.027 51.2937 173.447 52.1442C173.868 52.9672 174.092 53.7765 174.12 54.5721C174.12 54.7642 174.05 54.9562 173.91 55.1483C173.77 55.3129 173.546 55.3952 173.237 55.3952H172.396C172.256 55.3952 172.074 55.3403 171.85 55.2306C171.654 55.1208 171.527 54.9014 171.471 54.5721C171.303 53.2004 170.56 52.0756 169.243 51.1977C167.953 50.2923 166.272 49.8397 164.197 49.8397C162.123 49.8397 160.427 50.2375 159.11 51.0331C157.792 51.8287 157.134 53.077 157.134 54.7779C157.134 55.8753 157.428 56.7806 158.017 57.4939C158.605 58.1798 159.53 58.7971 160.792 59.3458C162.053 59.867 163.679 60.4432 165.669 61.0742C167.771 61.7326 169.509 62.391 170.883 63.0495C172.256 63.7079 173.279 64.5172 173.952 65.4774C174.625 66.4102 174.961 67.6311 174.961 69.14C174.961 70.8135 174.527 72.2401 173.658 73.4198C172.817 74.572 171.611 75.4637 170.042 76.0947C168.472 76.6982 166.594 77 164.408 77Z" fill="#322E5C"/>
</svg>
